<svg xmlns="http://www.w3.org/2000/svg" viewBox="0 0 320 64" role="img" aria-label="JSASEM 72">
  <defs><clipPath id="lk_disc"><circle cx="32" cy="32" r="31"/></clipPath></defs>
  <circle cx="32" cy="32" r="31" fill="#0b2545"/>
  <g clip-path="url(#lk_disc)">
    <path d="M0,0 L0,46 Q 14,42 30,37 Q 38,34 40,20 L 40,0 Z" fill="#1c477e"/>
    <path d="M0,46 Q 14,42 30,37 Q 38,34 40,20 L 40,0" fill="none" stroke="#80d0ff" stroke-width="1.1" opacity="0.5"/>
    <path d="M18.27,48.80 L52.27,24.80 L49.73,21.20 L15.73,45.20 Z" fill="#fafafa"/>
    <line x1="17" y1="47" x2="51" y2="23" stroke="#f5a623" stroke-width="1.15" stroke-dasharray="2.2 2.4"/>
  </g>
  <circle cx="32" cy="32" r="27" fill="none" stroke="#f5a623" stroke-width="1.1" opacity="0.3"/>
  <path d="M48,11 Q 48,13.6 50.6,13.6 Q 48,13.6 48,16.2 Q 48,13.6 45.4,13.6 Q 48,13.6 48,11 Z" fill="#f5a623" opacity="0.9"/>
  <text x="82" y="33" font-family="Inter, Arial, sans-serif" font-weight="700" font-size="29" letter-spacing="1.5" fill="#0b2545">JSASEM <tspan fill="#f5a623">72</tspan></text>
  <text x="83" y="52" font-family="Inter, Arial, sans-serif" font-weight="600" font-size="9.5" letter-spacing="2.4" fill="#5a6b80">SPACEPORT OITA · 2026</text>
</svg>
